<?xml version="1.0" encoding="utf-8"?>
<!-- Generator: Adobe Illustrator 25.2.1, SVG Export Plug-In . SVG Version: 6.00 Build 0)  -->
<svg version="1.2" baseProfile="tiny" xmlns="http://www.w3.org/2000/svg" xmlns:xlink="http://www.w3.org/1999/xlink" x="0px"
	 y="0px" viewBox="0 0 238.188 206.277" overflow="visible" xml:space="preserve">
<g id="Layer_3" display="none">
	<g display="inline">
		<polygon points="0,25.476 104.386,206.277 133.802,206.277 238.188,25.476 223.48,0 14.708,0 		"/>
		<polygon fill="#FFFFFF" points="112.181,107.888 154.256,107.888 199.186,30.067 39.003,30.067 54.182,56.359 59.24,56.359 
			121.847,56.359 153.241,56.359 138.655,81.637 68.789,81.637 119.094,168.79 133.219,144.326 		"/>
	</g>
</g>
<g id="Layer_4">
	<path d="M223.48,0H14.708L0,25.476l104.386,180.802h29.417L238.188,25.476L223.48,0z M154.256,107.888h-42.075l21.038,36.438
		l-14.125,24.464L68.789,81.637h69.866l14.586-25.277h-31.394H59.24h-5.058l-15.18-26.292h160.183L154.256,107.888z"/>
</g>
</svg>
